<?xml version="1.0" encoding="UTF-8" standalone="no"?>
<svg
   width="881mm"
   height="341mm"
   viewBox="0 -341 881 341"
   version="1.1"
   id="svg6"
   sodipodi:docname="1x90-bot.svg"
   inkscape:version="1.2.1 (9c6d41e410, 2022-07-14, custom)"
   xmlns:inkscape="http://www.inkscape.org/namespaces/inkscape"
   xmlns:sodipodi="http://sodipodi.sourceforge.net/DTD/sodipodi-0.dtd"
   xmlns="http://www.w3.org/2000/svg"
   xmlns:svg="http://www.w3.org/2000/svg">
  <defs
     id="defs10" />
  <sodipodi:namedview
     id="namedview8"
     pagecolor="#ffffff"
     bordercolor="#666666"
     borderopacity="1.0"
     inkscape:showpageshadow="2"
     inkscape:pageopacity="0.0"
     inkscape:pagecheckerboard="0"
     inkscape:deskcolor="#d1d1d1"
     inkscape:document-units="mm"
     showgrid="false"
     inkscape:zoom="0.39161937"
     inkscape:cx="1654.6679"
     inkscape:cy="646.03546"
     inkscape:window-width="2560"
     inkscape:window-height="1389"
     inkscape:window-x="0"
     inkscape:window-y="27"
     inkscape:window-maximized="1"
     inkscape:current-layer="svg6"
     inkscape:lockguides="true" />
  <title
     id="title2">OpenSCAD Model</title>
  <path
     d="m 3,-325.5789 v 6.421 H 0 v 6.4211 h 3 v 6.421 H 0 v 6.4211 h 3 v 6.421 H 0 v 6.4211 h 3 v 6.421 H 0 v 6.4211 h 3 v 6.421 H 0 v 6.4211 h 3 v 6.421 H 0 v 6.4211 h 3 v 6.421 H 0 v 6.4213 h 3 v 6.421 H 0 v 6.421 h 3 v 6.421 H 0 V -210 h 3 v 6 h 9 v 3 h 6.1333 v -3 h 6.1334 v 3 H 30.4 v -3 h 6.1333 v 3 h 6.1334 v -3 H 48.8 v 3 h 6.1333 v -3 h 6.1337 v 3 H 67.2 v -3 h 6.133 v 3 h 6.134 v -3 H 85.6 v 3 h 6.133 v -3 h 6.134 v 3 H 104 v -3 h 6.133 v 3 h 6.134 v -3 h 6.133 v 3 h 6.133 v -3 h 6.134 v 3 h 6.133 v -3 h 6.133 v 3 h 6.134 v -3 h 6.133 v 3 h 6.133 v -3 h 6.134 v 3 h 6.133 v -3 h 6.133 v 3 h 6.134 v -3 H 196 v 3 h 6.133 v -3 h 6.134 v 3 h 6.133 v -3 h 6.133 v 3 h 6.134 v -3 h 6.133 v 3 h 6.133 v -3 h 6.134 v 3 h 6.133 v -3 h 6.133 v 3 h 6.134 v -3 h 6.133 v 3 h 6.133 v -3 h 6.134 v 3 H 288 v -3 h 9 v -6 h 3 v -6.421 h -3 v -6.421 h 3 v -6.421 h -3 v -6.421 h 3 v -6.4213 h -3 v -6.421 h 3 v -6.4211 h -3 v -6.421 h 3 v -6.4211 h -3 v -6.421 h 3 v -6.4211 h -3 v -6.421 h 3 v -6.4211 h -3 v -6.421 h 3 v -6.4211 h -3 v -6.421 h 3 v -6.4211 h -3 v -6.421 h 3 V -332 h -3 v -6 h -9 v -3 h -6.133 v 3 h -6.134 v -3 H 269.6 v 3 h -6.133 v -3 h -6.134 v 3 H 251.2 v -3 h -6.133 v 3 h -6.134 v -3 H 232.8 v 3 h -6.133 v -3 h -6.134 v 3 H 214.4 v -3 h -6.133 v 3 h -6.134 v -3 H 196 v 3 h -6.133 v -3 h -6.134 v 3 H 177.6 v -3 h -6.133 v 3 h -6.134 v -3 H 159.2 v 3 h -6.133 v -3 h -6.134 v 3 H 140.8 v -3 h -6.133 v 3 h -6.134 v -3 H 122.4 v 3 h -6.133 v -3 h -6.134 v 3 H 104 v -3 h -6.133 v 3 h -6.134 v -3 H 85.6 v 3 h -6.133 v -3 h -6.134 v 3 H 67.2 v -3 h -6.133 v 3 h -6.1337 v -3 H 48.8 v 3 h -6.1333 v -3 h -6.1334 v 3 H 30.4 v -3 h -6.1333 v 3 h -6.1334 v -3 H 12 v 3 H 3 v 5.99998 H 0 v 6.42112 z"
     id="path4"
     style="fill:none;stroke:#000000;stroke-opacity:1" />
</svg>
