<?xml version="1.0" encoding="UTF-8" standalone="no"?>
<!-- Created with Inkscape (http://www.inkscape.org/) -->

<svg
   xmlns:dc="http://purl.org/dc/elements/1.1/"
   xmlns:cc="http://creativecommons.org/ns#"
   xmlns:rdf="http://www.w3.org/1999/02/22-rdf-syntax-ns#"
   xmlns:svg="http://www.w3.org/2000/svg"
   xmlns="http://www.w3.org/2000/svg"
   xmlns:sodipodi="http://sodipodi.sourceforge.net/DTD/sodipodi-0.dtd"
   xmlns:inkscape="http://www.inkscape.org/namespaces/inkscape"
   width="1220mm"
   height="610mm"
   viewBox="0 0 4322.8346 2161.4173"
   id="svg8254"
   version="1.1"
   inkscape:version="0.92.3 (2405546, 2018-03-11)"
   sodipodi:docname="gevind.svg">
  <defs
     id="defs8256" />
  <sodipodi:namedview
     id="base"
     pagecolor="#ffffff"
     bordercolor="#666666"
     borderopacity="1.0"
     inkscape:pageopacity="0.0"
     inkscape:pageshadow="2"
     inkscape:zoom="1.1018345"
     inkscape:cx="449.76379"
     inkscape:cy="2150.5512"
     inkscape:document-units="mm"
     inkscape:current-layer="layer1"
     showgrid="false"
     inkscape:window-width="1600"
     inkscape:window-height="832"
     inkscape:window-x="1280"
     inkscape:window-y="124"
     inkscape:window-maximized="1"
     inkscape:snap-global="false" />
  <metadata
     id="metadata8259">
    <rdf:RDF>
      <cc:Work
         rdf:about="">
        <dc:format>image/svg+xml</dc:format>
        <dc:type
           rdf:resource="http://purl.org/dc/dcmitype/StillImage" />
        <dc:title />
      </cc:Work>
    </rdf:RDF>
  </metadata>
  <g
     inkscape:label="Layer 1"
     inkscape:groupmode="layer"
     id="layer1"
     transform="translate(0,1109.0551)">
    <g
       id="g975"
       transform="translate(-88.125005,-281.25001)">
      <path
         id="path959"
         transform="matrix(0.93750003,0,0,0.93750003,0,-1109.0551)"
         d="m 116.82617,302.36133 c -10.49517,0 -18.945311,8.45014 -18.945311,18.94531 v 18.80469 c 0,6.23171 2.992091,11.72524 7.609371,15.17383 7.12525,-9.50616 18.30549,-15.10894 30.18555,-15.12696 11.88178,0.0142 23.06524,5.61496 30.19336,15.1211 4.61318,-3.44894 7.60156,-8.93949 7.60156,-15.16797 v -18.80469 c 0,-10.49517 -8.44819,-18.94531 -18.94336,-18.94531 z"
         style="fill:none;stroke:#000000;stroke-width:0.37795278;stroke-miterlimit:4;stroke-dasharray:none;stroke-opacity:1"
         inkscape:connector-curvature="0" />
      <path
         inkscape:connector-curvature="0"
         style="fill:none;stroke:#000000;stroke-width:0.35433075;stroke-miterlimit:4;stroke-dasharray:none;stroke-opacity:1"
         d="m 109.52454,-683.85824 c -9.839224,0 -17.761232,-7.922 -17.761232,-17.76123 v -17.62939 c 0,-5.84223 2.805086,-10.99242 7.133786,-14.22547 6.679926,8.91203 17.161396,14.16463 28.298956,14.18153 11.13917,-0.0133 21.62366,-5.26403 28.30627,-14.17603 4.32486,3.23338 7.12647,8.38077 7.12647,14.21997 v 17.62939 c 0,9.83923 -7.92018,17.76123 -17.7594,17.76123 z"
         id="path961" />
      <text
         id="text969"
         y="-743.46149"
         x="103.6977"
         style="font-style:normal;font-weight:normal;font-size:37.5px;line-height:1.25;font-family:sans-serif;letter-spacing:0px;word-spacing:0px;fill:#000000;fill-opacity:1;stroke:none;stroke-width:0.93750006"
         xml:space="preserve"><tspan
           style="stroke-width:0.93750006"
           y="-743.46149"
           x="103.6977"
           id="tspan967"
           sodipodi:role="line">20</tspan></text>
    </g>
    <g
       id="g1006"
       transform="translate(-56.250003,-13.125002)">
      <path
         id="path977"
         transform="matrix(0.93750003,0,0,0.93750003,0,-1109.0551)"
         d="m 234.71484,134.16797 a 47.244095,47.244095 0 0 1 -36.28906,17.01367 47.244095,47.244095 0 0 1 -36.25976,-17.02734 c -6.4999,3.08349 -10.98438,9.67923 -10.98438,17.37695 v 18.19727 c 0,10.66298 8.58312,19.24804 19.24609,19.24804 h 55.99415 c 10.66297,0 19.24804,-8.58506 19.24804,-19.24804 v -18.19727 c 0,-7.68584 -4.47147,-14.27367 -10.95508,-17.36328 z"
         style="fill:none;stroke:#000000;stroke-width:0.37795275;stroke-miterlimit:4;stroke-dasharray:none;stroke-opacity:1"
         inkscape:connector-curvature="0" />
      <path
         inkscape:connector-curvature="0"
         style="fill:none;stroke:#000000;stroke-width:0.35433072;stroke-miterlimit:4;stroke-dasharray:none;stroke-opacity:1"
         d="m 220.04517,-1040.0768 a 44.29134,44.29134 0 0 0 -34.021,-15.9503 44.29134,44.29134 0 0 0 -33.99352,15.9631 c -6.09366,-2.8907 -10.29786,-9.0742 -10.29786,-16.2908 v -17.06 c 0,-9.9965 8.04668,-18.045 18.04321,-18.045 h 52.49452 c 9.99653,0 18.04504,8.0485 18.04504,18.045 v 17.06 c 0,7.2054 -4.19201,13.3815 -10.27039,16.278 z"
         id="path996" />
      <text
         id="text1000"
         y="-999.54388"
         x="158.87318"
         style="font-style:normal;font-weight:normal;font-size:37.5px;line-height:1.25;font-family:sans-serif;letter-spacing:0px;word-spacing:0px;fill:#000000;fill-opacity:1;stroke:none;stroke-width:0.93750006"
         xml:space="preserve"><tspan
           style="stroke-width:0.93750006"
           y="-999.54388"
           x="158.87318"
           id="tspan998"
           sodipodi:role="line">25</tspan></text>
    </g>
    <g
       id="g1029"
       transform="translate(-31.875001,-67.500003)">
      <path
         id="path1017"
         transform="matrix(0.93750003,0,0,0.93750003,0,-1109.0551)"
         d="m 247.5918,75.589844 c -11.53404,0 -20.82032,9.286233 -20.82032,20.820312 v 33.951174 c 0,5.69458 2.26925,10.83444 5.94922,14.58594 a 56.692915,56.692915 0 0 1 50.74414,-31.56055 56.692915,56.692915 0 0 1 50.77149,31.52734 c 3.66168,-3.74877 5.92187,-8.87415 5.92187,-14.55273 V 96.410156 c 0,-11.534079 -9.28626,-20.820312 -20.82031,-20.820312 z"
         style="fill:none;stroke:#000000;stroke-width:0.96798265;stroke-miterlimit:4;stroke-dasharray:none;stroke-opacity:1"
         inkscape:connector-curvature="0" />
      <path
         inkscape:connector-curvature="0"
         style="fill:none;stroke:#000000;stroke-width:0.90748376;stroke-miterlimit:4;stroke-dasharray:none;stroke-opacity:1"
         d="m 232.11732,-860.34693 c -10.81316,0 -19.51905,-8.7058 -19.51905,-19.51902 v -31.82923 c 0,-5.33867 2.12742,-10.15729 5.57739,-13.67432 a 53.14961,53.14961 0 0 0 47.57264,29.58802 53.14961,53.14961 0 0 0 47.59827,-29.55689 c 3.43282,3.51448 5.55175,8.31952 5.55175,13.64319 v 31.82923 c 0,10.81322 -8.70587,19.51902 -19.51904,19.51902 z"
         id="path1019" />
      <text
         id="text1023"
         y="-936.29645"
         x="241.05365"
         style="font-style:normal;font-weight:normal;font-size:37.5px;line-height:1.25;font-family:sans-serif;letter-spacing:0px;word-spacing:0px;fill:#000000;fill-opacity:1;stroke:none;stroke-width:0.93750006"
         xml:space="preserve"><tspan
           style="stroke-width:0.93750006"
           y="-936.29645"
           x="241.05365"
           id="tspan1021"
           sodipodi:role="line">30</tspan></text>
    </g>
    <g
       id="g1052"
       transform="translate(-60.000003,-28.125001)">
      <path
         id="path1040"
         transform="matrix(0.93750003,0,0,0.93750003,0,-1109.0551)"
         d="m 403.45312,37.794922 c -14.12723,0 -25.5,11.372747 -25.5,25.5 v 24.589844 c 0,10.387933 6.15353,19.280594 15.0254,23.263674 a 71.811025,71.811025 0 0 1 56.78515,-27.998049 71.811025,71.811025 0 0 1 56.83008,27.978519 c 8.84827,-3.99269 14.98047,-12.873331 14.98047,-23.244144 V 63.294922 c 0,-14.127253 -11.37277,-25.5 -25.5,-25.5 z"
         style="fill:none;stroke:#000000;stroke-width:1.81721961;stroke-miterlimit:4;stroke-dasharray:none;stroke-opacity:1"
         inkscape:connector-curvature="0" />
      <path
         inkscape:connector-curvature="0"
         style="fill:none;stroke:#000000;stroke-width:1.70364344;stroke-miterlimit:4;stroke-dasharray:none;stroke-opacity:1"
         d="m 378.23731,-854.65272 c -13.24428,0 -23.90625,-10.662 -23.90625,-23.9063 v -23.053 c 0,-9.73866 5.76894,-18.07553 14.08631,-21.80967 a 67.322838,67.322838 0 0 0 53.23608,26.24817 67.322838,67.322838 0 0 0 53.27821,-26.22986 c 8.29525,3.74315 14.04419,12.06875 14.04419,21.79136 v 23.053 c 0,13.2443 -10.66198,23.9063 -23.90625,23.9063 z"
         id="path1042" />
      <text
         id="text1046"
         y="-948.67255"
         x="394.65405"
         style="font-style:normal;font-weight:normal;font-size:37.5px;line-height:1.25;font-family:sans-serif;letter-spacing:0px;word-spacing:0px;fill:#000000;fill-opacity:1;stroke:none;stroke-width:0.93750006"
         xml:space="preserve"><tspan
           style="stroke-width:0.93750006"
           y="-948.67255"
           x="394.65405"
           id="tspan1044"
           sodipodi:role="line">38</tspan></text>
    </g>
  </g>
</svg>
